<?xml version="1.0" encoding="UTF-8" standalone="no"?>
<svg
   width="223.92pt"
   height="96.96pt"
   viewBox="0 0 223.92 96.96"
   version="1.1"
   xmlns="http://www.w3.org/2000/svg">
  <defs>
    <linearGradient
       id="gradient0"
       gradientUnits="userSpaceOnUse"
       x1="15.610845"
       y1="-5.926981"
       x2="28.536197"
       y2="-16.692783"
       spreadMethod="pad"
       gradientTransform="matrix(1.9640847,0,0,2.840864,155.58194,89.42214)">
      <stop stop-color="#ff00ff" offset="0" />
      <stop stop-color="#0000ff" offset="0.166" />
      <stop stop-color="#00ffff" offset="0.333" />
      <stop stop-color="#00ff00" offset="0.5" />
      <stop stop-color="#ffff00" offset="0.666" />
      <stop stop-color="#ff0000" offset="0.833" />
      <stop stop-color="#ff00ff" offset="1" />
    </linearGradient>
  </defs>
  <!-- Layer 1: Unified stroke outline (union of DMX + r) -->
  <path
     d="M 7.8339844 6.7661133 L 7.8339844 89.422852 L 25.328613 89.422852 C 38.837135 89.422852 48.563098 86.174612 54.505371 79.678711 C 57.663907 76.225902 59.982256 71.63103 61.461914 65.894531 L 61.461914 89.422852 L 75.524414 89.422852 L 75.524414 23.208984 L 84.382324 59.359863 L 97.393066 59.359863 L 106.13965 23.208984 L 106.13965 89.422852 L 120.20215 89.422852 L 131.53418 89.422852 L 147.25635 62.072754 L 163.03418 89.422852 L 172.30078 89.422852 L 179.9209 89.422852 L 182.54297 89.422852 L 182.54297 58.584961 C 182.54297 51.09253 184.22336 45.353309 187.58203 41.367188 C 190.94071 37.344158 195.7568 35.332031 202.03125 35.332031 C 207.49372 35.332031 212.21749 36.956151 216.20361 40.204102 L 216.20361 29.796387 C 212.43894 27.21279 208.01085 25.92041 202.91748 25.92041 C 198.04555 25.92041 193.85543 27.101721 190.34912 29.463867 C 186.87972 31.789105 184.27767 35.148413 182.54297 39.540527 L 181.54688 27.416016 L 172.30078 27.416016 L 172.30078 76.174805 L 155.78174 47.456543 L 179.25586 6.7661133 L 162.37061 6.7661133 L 147.25635 33.062988 L 132.19775 6.7661133 L 120.20215 6.7661133 L 100.604 6.7661133 L 90.804199 43.02832 L 80.950195 6.7661133 L 61.461914 6.7661133 L 61.461914 30.158203 C 61.361217 29.773404 61.25691 29.394525 61.148438 29.021484 C 59.635188 23.780473 57.421145 19.573059 54.505371 16.398926 C 48.600006 9.9768414 38.874044 6.7661133 25.328613 6.7661133 L 7.8339844 6.7661133 z M 120.20215 15.202148 L 138.89648 47.456543 L 120.20215 79.809082 L 120.20215 15.202148 z M 24.166992 21.492188 L 28.595215 21.492188 C 35.054208 21.492187 39.630873 23.504314 42.325195 27.527344 C 45.056427 31.587282 46.422363 38.414037 46.422363 48.010254 C 46.422363 57.680289 45.056427 64.546019 42.325195 68.605957 C 39.593965 72.665895 35.0173 74.695312 28.595215 74.695313 L 24.166992 74.695313 L 24.166992 21.492188 z"
     style="fill:none;stroke:#000000;stroke-width:6.5;stroke-linejoin:miter" />
  <!-- Layer 2: "DMX" magenta fill (no stroke) -->
  <path
     d="M 7.8344614,6.7656195 H 25.329104 q 20.318146,0 29.176193,9.6331265 4.373661,4.7612 6.643536,12.622717 2.269874,7.806154 2.269874,19.044801 0,21.868304 -8.91341,31.612156 -8.91341,9.743852 -29.176193,9.743852 H 7.8344614 Z M 28.595509,74.695768 q 9.633127,0 13.729973,-6.089907 4.096847,-6.089907 4.096847,-20.59496 0,-14.394326 -4.096847,-20.484234 -4.041484,-6.034544 -13.729973,-6.034544 H 24.166486 V 74.695768 Z M 61.462588,6.7656195 H 80.950292 L 90.80487,43.02825 100.60408,6.7656195 h 19.59843 V 89.422272 H 106.14036 V 23.208369 L 97.393042,59.360274 H 84.382785 L 75.524738,23.208369 V 89.422272 H 61.462588 Z M 138.89672,47.457273 115.31217,6.7656195 h 16.88565 L 147.2565,33.062947 162.37054,6.7656195 h 16.88565 L 155.78237,47.457273 179.92055,89.422272 H 163.0349 L 147.2565,62.073051 131.53347,89.422272 h -16.88566 z"
     style="fill:#ff00fe"
     aria-label="DMX" />
  <!-- Layer 3: "r" rainbow gradient fill (no stroke) -->
  <path
     d="m 172.3015,27.415812 h 9.24559 l 0.99653,12.124452 q 2.60205,-6.588172 7.80615,-10.076028 5.25947,-3.543219 12.56736,-3.543219 7.64006,0 13.28707,3.875395 v 10.408206 q -5.97918,-4.871926 -14.17288,-4.871926 -9.41167,0 -14.44969,6.034544 -5.03801,5.979182 -5.03801,17.217829 V 89.422142 H 172.3015 Z"
     style="fill:url(#gradient0)"
     aria-label="r" />
</svg>
